HIERARCHY
ROOT root
{
	OFFSET 0.000000 0.000000 0.000000
	CHANNELS 6 Xposition Yposition Zposition Zrotation Yrotation Xrotation
	JOINT lhip
	{
		OFFSET 0.058581 -0.082280 -0.017664
		CHANNELS 3 Zrotation Yrotation Xrotation
		JOINT lknee
		{
			OFFSET 0.043451 -0.386469 0.008037
			CHANNELS 3 Zrotation Yrotation Xrotation
			JOINT lankle
			{
				OFFSET -0.014790 -0.426874 -0.037428
				CHANNELS 3 Zrotation Yrotation Xrotation
				JOINT ltoe
				{
					OFFSET 0.041054 -0.060286 0.122042
					CHANNELS 3 Zrotation Yrotation Xrotation
					End Site
					{
						OFFSET 0.000000 0.000000 0.000000
					}
				}
			}
		}
	}
	JOINT rhip
	{
		OFFSET -0.060310 -0.090513 -0.013543
		CHANNELS 3 Zrotation Yrotation Xrotation
		JOINT rknee
		{
			OFFSET -0.043257 -0.383688 -0.004843
			CHANNELS 3 Zrotation Yrotation Xrotation
			JOINT rankle
			{
				OFFSET 0.019056 -0.420046 -0.034562
				CHANNELS 3 Zrotation Yrotation Xrotation
				JOINT rtoe
				{
					OFFSET -0.034840 -0.062106 0.130323
					CHANNELS 3 Zrotation Yrotation Xrotation
					End Site
					{
						OFFSET 0.000000 0.000000 0.000000
					}
				}
			}
		}
	}
	JOINT lowerback
	{
		OFFSET 0.004439 0.124404 -0.038385
		CHANNELS 3 Zrotation Yrotation Xrotation
		JOINT upperback
		{
			OFFSET 0.004488 0.137956 0.026820
			CHANNELS 3 Zrotation Yrotation Xrotation
			JOINT chest
			{
				OFFSET -0.002265 0.056032 0.002855
				CHANNELS 3 Zrotation Yrotation Xrotation
				JOINT lowerneck
				{
					OFFSET -0.013390 0.211636 -0.033468
					CHANNELS 3 Zrotation Yrotation Xrotation
					JOINT upperneck
					{
						OFFSET 0.010113 0.088937 0.050410
						CHANNELS 3 Zrotation Yrotation Xrotation
						End Site
						{
							OFFSET 0.000000 0.000000 0.000000
						}
					}
				}
				JOINT lclavicle
				{
					OFFSET 0.071702 0.114000 -0.018898
					CHANNELS 3 Zrotation Yrotation Xrotation
					JOINT lshoulder
					{
						OFFSET 0.122921 0.045205 -0.019046
						CHANNELS 3 Zrotation Yrotation Xrotation
						JOINT lelbow
						{
							OFFSET 0.255332 -0.015649 -0.022946
							CHANNELS 3 Zrotation Yrotation Xrotation
							JOINT lwrist
							{
								OFFSET 0.265709 0.012698 -0.007375
								CHANNELS 3 Zrotation Yrotation Xrotation
								End Site
								{
									OFFSET 0.000000 0.000000 0.000000
								}
							}
						}
					}
				}
				JOINT rclavicle
				{
					OFFSET -0.082954 0.112472 -0.023707
					CHANNELS 3 Zrotation Yrotation Xrotation
					JOINT rshoulder
					{
						OFFSET -0.113228 0.046853 -0.008472
						CHANNELS 3 Zrotation Yrotation Xrotation
						JOINT relbow
						{
							OFFSET -0.260127 -0.014369 -0.031269
							CHANNELS 3 Zrotation Yrotation Xrotation
							JOINT rwrist
							{
								OFFSET -0.269108 0.006794 -0.006027
								CHANNELS 3 Zrotation Yrotation Xrotation
								End Site
								{
									OFFSET 0.000000 0.000000 0.000000
								}
							}
						}
					}
				}
			}
		}
	}
}
MOTION
Frames: 15
Frame Time: 0.033333
-0.021984 0.255292 0.990129 90.710758 0.227892 89.955876 7.469955 -0.585861 -15.784910 -1.488108 13.975282 28.740989 -1.904874 -5.747159 -13.633978 0.000000 -0.000000 0.000000 -6.874080 -4.268902 -21.322530 -2.843331 -16.349200 32.788924 1.237670 5.958159 -7.777579 0.000000 -0.000000 0.000000 2.120811 0.952734 16.925215 2.336836 -4.138245 17.160682 0.553825 1.159738 -6.019576 -7.555782 19.298974 -7.029231 -5.594287 10.505313 -12.135005 -18.630790 -19.555899 -8.047130 -65.887367 -28.346052 16.564121 166.841074 -40.306527 -120.093594 -48.044254 8.095622 2.625667 24.744467 20.817362 0.782718 59.901268 36.097591 18.380169 -166.193928 40.416532 -116.657217 54.793471 -20.798141 9.864119 
-0.022634 0.255408 0.989436 90.667947 0.287234 89.865405 7.599415 -0.492357 -15.954932 -1.504592 14.022433 29.215828 -1.993329 -5.830260 -13.765444 0.000000 -0.000000 0.000000 -6.910874 -4.349870 -21.438344 -2.748956 -16.245198 33.171938 1.205799 6.098116 -7.776788 0.000000 -0.000000 0.000000 2.156918 0.981236 17.098900 2.325856 -4.142198 17.371751 0.538896 1.180555 -6.026906 -7.814800 19.482864 -7.125720 -5.710577 10.398866 -12.232115 -18.315667 -19.752608 -8.034540 -65.897253 -28.423489 16.359505 166.842561 -40.160859 -119.871222 -47.951987 8.169558 2.646265 24.567529 21.031583 0.854035 59.870738 36.224064 18.215990 -166.213008 40.465629 -116.648992 54.498857 -20.713382 9.787757 
-0.023176 0.255522 0.988110 90.765033 0.317994 89.847896 7.756028 -0.386281 -16.277933 -1.645481 14.013531 29.770734 -1.866672 -5.975972 -14.004127 0.000000 -0.000000 0.000000 -7.031682 -4.490079 -21.708453 -2.660757 -16.327937 33.735006 1.154151 6.159859 -8.049406 0.000000 -0.000000 0.000000 2.138916 0.960497 17.315048 2.351961 -4.153304 17.355496 0.533176 1.213446 -6.047884 -7.869763 19.718096 -7.278097 -5.723069 10.310429 -12.020370 -18.116924 -19.789096 -8.184693 -65.896640 -28.521922 16.334437 166.804931 -40.127576 -119.800905 -47.807167 7.996265 2.521600 24.525860 21.122569 0.762121 59.743425 36.279983 18.176006 -166.276695 40.497315 -116.590295 54.628756 -20.697144 9.786335 
-0.023133 0.255622 0.986539 90.827122 0.346076 89.695399 7.880627 -0.240551 -16.484771 -1.793611 13.915682 30.488404 -1.783097 -5.951689 -14.356671 0.000000 -0.000000 0.000000 -7.188968 -4.665434 -21.830555 -2.581817 -16.436846 34.384443 1.044879 6.333151 -8.444427 0.000000 -0.000000 0.000000 2.143276 0.968277 17.674440 2.339782 -4.111077 17.126938 0.549749 1.207593 -5.980077 -7.983618 19.669287 -7.139168 -5.737732 10.254010 -12.292794 -18.038401 -19.911084 -8.218771 -65.729956 -28.638671 16.158390 166.864591 -40.019482 -119.768016 -47.933991 8.180750 2.530188 24.525689 21.229849 0.890836 59.562654 36.346939 17.905916 -166.346875 40.501976 -116.697387 54.775564 -20.817070 9.663955 
-0.023399 0.255976 0.984773 90.944604 0.391456 89.505439 8.089275 -0.177357 -16.747820 -2.026410 13.872474 31.268427 -1.754789 -6.068730 -14.564080 0.000000 -0.000000 0.000000 -7.347616 -4.840762 -21.966034 -2.480159 -16.512761 35.071851 0.938928 6.371872 -8.782437 0.000000 -0.000000 0.000000 2.138960 0.967582 18.155808 2.415901 -4.152688 16.943803 0.586462 1.285764 -6.021689 -8.011423 19.672629 -7.265167 -5.842784 10.057176 -12.115794 -17.938130 -20.053427 -8.250517 -65.680502 -28.805753 16.080008 166.842903 -40.066250 -119.676581 -47.746872 8.038909 2.491942 24.406389 21.356488 1.306712 59.313001 36.671700 17.512440 -166.321604 40.409197 -116.428032 54.653679 -20.799409 9.488180 
-0.023446 0.256131 0.983103 91.102398 0.502970 89.387906 8.310859 -0.127075 -17.016559 -2.216606 13.811394 31.995745 -1.484110 -6.054978 -14.987249 0.000000 -0.000000 0.000000 -7.464510 -4.988897 -22.180352 -2.260988 -16.505670 35.770777 0.845875 6.332160 -9.160668 0.000000 -0.000000 0.000000 2.221213 0.889851 18.294032 2.491600 -4.168086 16.933815 0.578425 1.273873 -5.982542 -8.117157 19.647360 -7.417057 -5.782473 10.042516 -12.010324 -17.938417 -20.008420 -8.330623 -65.597427 -28.908979 16.110147 166.688975 -40.153002 -119.803077 -47.425613 7.927760 2.322985 24.450855 21.458034 1.319755 59.070440 36.664343 17.436250 -166.166473 40.475543 -116.471089 54.932155 -20.729536 9.475265 
-0.023227 0.256419 0.981709 91.208891 0.547023 89.095004 8.409124 -0.101867 -17.050608 -2.364323 13.654031 32.634358 -1.524294 -5.997521 -15.300667 0.000000 -0.000000 0.000000 -7.601921 -5.149321 -22.104851 -2.171031 -16.549274 36.341604 0.704661 6.425909 -9.654347 0.000000 -0.000000 0.000000 2.241850 1.053603 18.141187 2.579682 -4.277516 17.784205 0.591415 1.196389 -6.142850 -8.077219 19.757848 -7.521853 -5.941952 9.773554 -11.935986 -17.911084 -20.450847 -8.381074 -65.366708 -28.876639 15.931206 166.518763 -40.054607 -119.650833 -47.299282 7.992613 2.498139 24.574273 21.771677 1.325003 58.589709 36.681795 17.082978 -165.976305 40.505544 -116.408896 54.441847 -20.788129 9.785238 
-0.022946 0.256784 0.980846 91.265879 0.547301 89.057456 8.485541 -0.208455 -17.170563 -2.500454 13.705809 32.965440 -1.355110 -5.921227 -15.530123 0.000000 -0.000000 0.000000 -7.715501 -5.184595 -22.203410 -2.054672 -16.503974 36.655366 0.586286 6.274360 -9.868126 0.000000 -0.000000 0.000000 2.263618 1.021339 18.254802 2.590096 -4.257106 17.635139 0.562593 1.150724 -6.144128 -8.124274 19.708899 -7.434110 -5.955427 9.887671 -11.893958 -18.056475 -20.340934 -8.299659 -65.329567 -28.685581 15.891164 166.605251 -40.128933 -119.652428 -47.307456 7.902881 2.498499 24.668535 21.722250 1.503748 58.753578 36.560682 17.165745 -166.052687 40.643935 -116.457561 54.937111 -20.611314 9.549583 
-0.022690 0.257015 0.980622 91.387331 0.545325 88.980387 8.481494 -0.296740 -17.166328 -2.566795 13.711802 33.104332 -1.224994 -5.874765 -15.684007 0.000000 -0.000000 0.000000 -7.830814 -5.179643 -22.174139 -2.030020 -16.617560 36.860717 0.498256 6.216486 -10.023785 0.000000 -0.000000 0.000000 2.254100 0.997169 18.166517 2.562957 -4.303832 17.882874 0.501071 1.194038 -6.145407 -8.072082 19.626008 -7.485986 -5.920590 9.731988 -11.936913 -18.200312 -20.335733 -8.254196 -65.298217 -28.687378 15.954499 166.572576 -40.144952 -119.875498 -47.482838 8.072892 2.480737 24.927202 21.712090 1.562104 58.796636 36.475205 17.305965 -165.965951 40.619028 -116.516707 54.597650 -20.857989 9.890995 
-0.022246 0.257384 0.980775 91.424896 0.467940 88.959086 8.412165 -0.323766 -17.072147 -2.654627 13.777731 33.041872 -1.241885 -5.921683 -15.685287 0.000000 -0.000000 0.000000 -7.942205 -5.228873 -22.116230 -2.088246 -16.670145 36.898542 0.516956 6.313409 -10.045279 0.000000 -0.000000 0.000000 2.233519 0.987040 18.202058 2.491070 -4.325202 17.796813 0.465508 1.171046 -6.185423 -8.121327 19.621940 -7.269059 -5.815329 9.781391 -12.024125 -18.389434 -20.230352 -8.180248 -65.253832 -28.458188 15.890334 166.596198 -40.084394 -120.002378 -47.615262 8.078076 2.477992 25.049488 21.770295 1.860892 58.908462 36.337804 17.338185 -166.126223 40.632209 -116.647773 55.019500 -20.962124 9.798195 
-0.021891 0.257771 0.981067 91.438980 0.448655 88.960447 8.395173 -0.305426 -17.010126 -2.751239 13.766148 32.949049 -1.274713 -5.924274 -15.638559 0.000000 -0.000000 0.000000 -7.995100 -5.258443 -22.037411 -2.076707 -16.717085 36.818482 0.575520 6.347741 -9.990045 0.000000 -0.000000 0.000000 2.196475 1.019351 18.212687 2.511038 -4.279663 17.685005 0.466693 1.145880 -6.121411 -8.135280 19.542156 -7.190700 -5.812997 9.714865 -11.945351 -18.429033 -20.028167 -8.123170 -65.428756 -28.405452 16.013130 166.603242 -40.145518 -120.125422 -47.220698 7.889582 2.482684 25.062742 21.652285 1.774554 59.073284 36.257510 17.514001 -166.208294 40.722485 -116.836098 55.092157 -20.894360 9.731915 
-0.021598 0.257967 0.981161 91.515556 0.426133 89.059523 8.382979 -0.283645 -17.074898 -2.805490 13.801860 32.898557 -1.236011 -6.004415 -15.610917 0.000000 -0.000000 0.000000 -8.052990 -5.318094 -22.102440 -2.079779 -16.768292 36.825960 0.622786 6.394881 -9.996170 0.000000 -0.000000 0.000000 2.139365 1.049080 18.051845 2.499166 -4.252642 17.615732 0.464099 1.181498 -6.064655 -8.045721 19.487163 -7.041129 -5.813122 9.681026 -12.086024 -18.366691 -19.928779 -8.178038 -65.493756 -28.331158 16.120952 166.572682 -40.187806 -120.159643 -46.972323 7.960904 2.465164 24.977634 21.522591 1.703798 59.224717 36.231402 17.651757 -166.234948 40.738529 -116.919079 54.856788 -20.811852 9.834817 
-0.021387 0.258163 0.981287 91.648439 0.412691 89.010353 8.330711 -0.286707 -17.001366 -2.838980 13.730853 32.872690 -1.236883 -6.080636 -15.668490 0.000000 -0.000000 0.000000 -8.139334 -5.424599 -21.987771 -2.063682 -16.884033 36.842971 0.592338 6.513987 -10.064254 0.000000 -0.000000 0.000000 2.183271 1.037940 18.058430 2.465186 -4.263144 17.630183 0.466378 1.179051 -6.084730 -8.152633 19.512921 -7.040322 -5.884838 9.658391 -12.149678 -18.349493 -19.942013 -8.241612 -65.426087 -28.485849 15.945241 166.548888 -40.097932 -120.069950 -47.772560 8.047176 2.321658 24.927885 21.584254 1.696884 59.136473 36.428983 17.572861 -166.288779 40.764772 -116.952643 55.039906 -20.894474 9.778476 
-0.021418 0.258245 0.981105 91.722492 0.430535 89.026735 8.344303 -0.360540 -17.101605 -2.838587 13.732389 33.013915 -1.314344 -6.080491 -15.701193 0.000000 -0.000000 0.000000 -8.161604 -5.417050 -22.072219 -2.069594 -16.916670 37.017043 0.658465 6.454579 -10.148507 0.000000 -0.000000 0.000000 2.145502 1.185966 18.060468 2.497863 -4.183158 17.353426 0.470690 1.221637 -5.950780 -7.927389 19.526450 -6.851462 -5.984040 9.579584 -12.210216 -18.196170 -20.220138 -8.033542 -65.324664 -28.702401 16.022952 166.293794 -40.072490 -119.815071 -47.417606 8.077976 2.534390 24.930359 21.482982 1.490333 58.960032 36.410799 17.523842 -166.233415 40.753966 -116.958871 55.033468 -20.790980 9.539922 
-0.021348 0.258241 0.980670 91.841804 0.463991 89.028909 8.362520 -0.246704 -17.193660 -2.903655 13.535161 33.129393 -1.169105 -6.066034 -15.818679 0.000000 -0.000000 0.000000 -8.150988 -5.465319 -22.142761 -2.065764 -16.923000 37.203409 0.595961 6.375263 -10.245081 0.000000 -0.000000 0.000000 2.131339 1.207246 17.763418 2.547042 -4.216913 17.774654 0.465020 1.278469 -5.958335 -7.983568 19.622016 -7.100185 -6.070622 9.374564 -12.138552 -17.912178 -20.329003 -8.289811 -65.344083 -28.816588 16.066585 166.153737 -40.051169 -119.595475 -46.993306 8.119557 2.558544 24.709663 21.610332 1.232449 58.929609 36.605280 17.532369 -166.066654 40.779186 -116.736512 55.077788 -20.713201 9.430596 
